<svg width="80" height="25" viewBox="0 0 80 25" fill="none" xmlns="http://www.w3.org/2000/svg">
<path d="M4.26411 1.60113C4.26411 2.2195 4.25211 2.94489 4.22811 3.7773C4.20411 4.58594 4.18011 5.2043 4.15611 5.6324C4.08411 6.84535 4.04811 8.0583 4.04811 9.27124C4.04811 10.175 4.08411 11.1144 4.15611 12.0896C4.90011 11.0193 5.70411 10.2345 6.56811 9.73502C7.43211 9.23557 8.47611 8.98584 9.70011 8.98584C10.5881 8.98584 11.4161 9.37827 12.1841 10.1631C12.9521 10.948 13.4441 11.8636 13.6601 12.9101C13.7321 13.8376 13.7681 14.9673 13.7681 16.2992C13.7681 17.1554 13.8161 18.2732 13.9121 19.6526C13.9601 20.1759 14.0921 20.6634 14.3081 21.1153C14.5481 21.5672 14.8841 21.7931 15.3161 21.7931C15.5321 21.7931 15.7001 21.7813 15.8201 21.7575C15.9641 21.7337 16.0961 21.7218 16.2161 21.7218C16.5521 21.7218 16.7801 21.805 16.9001 21.9715C17.0441 22.138 17.1161 22.3758 17.1161 22.685C17.1161 23.2558 16.8281 23.6839 16.2521 23.9693C15.6761 24.2547 15.1481 24.3974 14.6681 24.3974C12.9401 24.3974 11.7521 23.6839 11.1041 22.2569C10.7441 21.4483 10.5161 20.4018 10.4201 19.1175C10.3241 17.8094 10.2761 16.2873 10.2761 14.5511C10.2761 12.8387 9.68811 11.9825 8.51211 11.9825C7.86411 11.9825 7.20411 12.3274 6.53211 13.0171C5.88411 13.683 5.34411 14.5749 4.91211 15.6927C4.48011 16.7868 4.26411 17.9284 4.26411 19.1175L4.30011 22.8277C4.30011 23.351 4.09611 23.7434 3.68811 24.005C3.28011 24.2428 2.89611 24.3617 2.53611 24.3617C2.00811 24.3617 1.52811 24.2071 1.09611 23.898C0.664109 23.565 0.448109 23.1964 0.448109 22.792C0.616109 21.0083 0.700109 18.0235 0.700109 13.8376C0.700109 13.0766 0.640109 10.2582 0.520109 5.38268L0.412109 2.10058C0.412109 1.57735 0.652109 1.12547 1.13211 0.744934C1.61211 0.340617 2.15211 0.13846 2.75211 0.13846C3.28011 0.13846 3.66411 0.257376 3.90411 0.495209C4.14411 0.733042 4.26411 1.10168 4.26411 1.60113ZM21.6152 1.31573C22.4552 1.38708 23.1872 1.61302 23.8112 1.99356C24.4352 2.35031 24.7472 2.89732 24.7472 3.6346C24.7472 4.18162 24.4832 4.62161 23.9552 4.95458C23.4512 5.26376 22.8392 5.41835 22.1192 5.41835C21.4232 5.41835 20.9432 5.23997 20.6792 4.88323C20.4152 4.52648 20.2832 4.15784 20.2832 3.7773C20.2832 3.0638 20.3552 2.46922 20.4992 1.99356C20.6672 1.51789 21.0392 1.29195 21.6152 1.31573ZM24.4952 17.1197V18.1543C24.4952 19.0818 24.5192 19.9618 24.5672 20.7942C24.6392 21.6029 24.7232 22.4234 24.8192 23.2558C24.7952 23.4936 24.6152 23.7434 24.2792 24.005C23.9432 24.2428 23.6432 24.3617 23.3792 24.3617C22.9232 24.3617 22.4552 24.2785 21.9752 24.112C21.5192 23.9217 21.2432 23.6958 21.1472 23.4342C21.0032 22.6731 20.9312 21.9953 20.9312 21.4007C20.9312 19.4505 20.8712 17.2624 20.7512 14.8365C20.6552 12.696 20.6072 11.1977 20.6072 10.3415C20.6072 9.91339 20.8232 9.54475 21.2552 9.23557C21.6872 8.92638 22.1432 8.77179 22.6232 8.77179C23.3192 8.77179 23.7992 8.92638 24.0632 9.23557C24.3512 9.54475 24.4952 10.0323 24.4952 10.6982V17.1197ZM36.9061 3.2065C36.1861 3.2065 35.7421 3.80109 35.5741 4.99025C35.4061 6.60751 35.3221 7.83235 35.3221 8.66477C35.8021 8.71234 36.3061 8.73612 36.8341 8.73612C37.1701 8.73612 37.6021 8.71234 38.1301 8.66477L39.0661 8.62909C39.5461 8.62909 39.9061 8.71234 40.1461 8.87882C40.3861 9.0453 40.5061 9.31881 40.5061 9.69934C40.5061 10.2226 40.3261 10.6745 39.9661 11.055C39.6301 11.4117 39.2341 11.5901 38.7781 11.5901C37.0501 11.5901 35.8861 11.6734 35.2861 11.8398C35.2861 13.2906 35.3581 15.3479 35.5021 18.0116L35.5741 19.7597L35.7181 22.5423C35.7661 23.232 35.6941 23.7196 35.5021 24.005C35.3341 24.2666 34.9621 24.3974 34.3861 24.3974C33.3301 24.3974 32.6461 23.7672 32.3341 22.5066C32.1421 21.5791 31.9861 20.2829 31.8661 18.6181C31.7461 16.9532 31.6861 15.4668 31.6861 14.1587C31.6861 13.469 31.7221 12.6841 31.7941 11.8042C31.7461 11.7804 31.6141 11.7685 31.3981 11.7685C31.1821 11.7685 31.0261 11.7804 30.9301 11.8042C30.2101 11.8517 29.6821 11.8755 29.3461 11.8755C29.1301 11.8755 28.9141 11.7328 28.6981 11.4474C28.4821 11.1382 28.3741 10.7696 28.3741 10.3415C28.3741 10.1037 28.4581 9.88961 28.6261 9.69934C28.7941 9.48529 28.9981 9.3307 29.2381 9.23557C29.5981 9.0453 30.1141 8.95017 30.7861 8.95017L31.8661 8.98584C31.8661 5.60862 32.2501 3.26596 33.0181 1.95788C33.7381 0.721151 34.9261 0.102783 36.5821 0.102783C37.5421 0.102783 38.4181 0.340616 39.2101 0.816284C39.5461 1.03033 39.7981 1.29195 39.9661 1.60113C40.1581 1.91032 40.2541 2.20761 40.2541 2.49301C40.2541 2.84976 40.1101 3.2184 39.8221 3.59893C39.5581 3.97946 39.1501 4.16973 38.5981 4.16973C38.3821 4.16973 38.1061 4.00324 37.7701 3.67028C37.6501 3.55136 37.5181 3.44434 37.3741 3.3492C37.2301 3.25407 37.0741 3.2065 36.9061 3.2065ZM47.5924 18.6894C47.5924 19.5932 47.7244 20.2948 47.9884 20.7942C48.2764 21.2699 48.6364 21.5077 49.0684 21.5077C49.3084 21.5077 49.5364 21.4959 49.7524 21.4721C49.9684 21.4245 50.1844 21.4007 50.4004 21.4007C50.6404 21.4007 50.8444 21.5196 51.0124 21.7575C51.2044 21.9953 51.3004 22.2569 51.3004 22.5423C51.3004 23.1131 51.0244 23.565 50.4724 23.898C49.9444 24.2071 49.2244 24.3617 48.3124 24.3617C47.6644 24.3617 47.0044 24.1715 46.3324 23.7909C45.6844 23.3866 45.1444 22.7683 44.7124 21.9358C44.2804 21.0796 44.0644 20.0213 44.0644 18.7608C44.0644 16.0495 44.1124 13.7544 44.2084 11.8755C44.3284 9.63988 44.3884 6.82156 44.3884 3.42055C44.3884 2.35031 44.4484 1.60113 44.5684 1.17303C44.7124 0.840067 44.9404 0.590343 45.2524 0.423858C45.5884 0.233592 45.9364 0.13846 46.2964 0.13846C46.6564 0.13846 46.9684 0.197918 47.2324 0.316834C47.5204 0.43575 47.7124 0.626017 47.8084 0.887634C47.9044 1.17303 47.9644 1.45843 47.9884 1.74383C48.0364 2.00545 48.0604 2.38598 48.0604 2.88543C48.0604 3.86054 48.0244 4.79998 47.9524 5.70375C47.9044 6.79778 47.8804 7.59452 47.8804 8.09397C47.6884 12.2798 47.5924 15.8116 47.5924 18.6894ZM56.0918 1.31573C56.9318 1.38708 57.6638 1.61302 58.2878 1.99356C58.9118 2.35031 59.2238 2.89732 59.2238 3.6346C59.2238 4.18162 58.9598 4.62161 58.4318 4.95458C57.9278 5.26376 57.3158 5.41835 56.5958 5.41835C55.8998 5.41835 55.4198 5.23997 55.1558 4.88323C54.8918 4.52648 54.7598 4.15784 54.7598 3.7773C54.7598 3.0638 54.8318 2.46922 54.9758 1.99356C55.1438 1.51789 55.5158 1.29195 56.0918 1.31573ZM58.9718 17.1197V18.1543C58.9718 19.0818 58.9958 19.9618 59.0438 20.7942C59.1158 21.6029 59.1998 22.4234 59.2958 23.2558C59.2958 23.5412 59.1278 23.8028 58.7918 24.0407C58.4558 24.2547 58.1438 24.3617 57.8558 24.3617C57.3998 24.3617 56.9318 24.2785 56.4518 24.112C55.9958 23.9217 55.7198 23.6958 55.6238 23.4342C55.4798 22.6731 55.4078 21.9953 55.4078 21.4007C55.4078 19.4505 55.3478 17.2624 55.2278 14.8365C55.1318 12.696 55.0838 11.1977 55.0838 10.3415C55.0838 9.91339 55.2998 9.54475 55.7318 9.23557C56.1638 8.92638 56.6198 8.77179 57.0998 8.77179C57.7958 8.77179 58.2758 8.92638 58.5398 9.23557C58.8278 9.54475 58.9718 10.0323 58.9718 10.6982V17.1197ZM76.1347 8.48639C76.6147 8.48639 76.9867 8.60531 77.2507 8.84314C77.5387 9.05719 77.6827 9.3307 77.6827 9.66367C77.6827 9.9015 77.6347 10.1512 77.5387 10.4128C77.4667 10.6507 77.3827 10.9004 77.2867 11.162C76.7347 12.4463 75.5707 14.242 73.7947 16.5489C75.6187 18.8797 77.0947 20.378 78.2227 21.044C78.3187 21.0915 78.4987 21.1748 78.7627 21.2937C79.0267 21.4126 79.2307 21.5553 79.3747 21.7218C79.5427 21.8883 79.6267 22.0785 79.6267 22.2926C79.6267 22.8158 79.4227 23.2439 79.0147 23.5769C78.6307 23.8861 78.1627 24.0407 77.6107 24.0407C76.6747 24.0407 75.6547 23.5293 74.5507 22.5066C73.4467 21.4602 72.5107 20.3661 71.7427 19.2245C71.1907 20.057 70.5547 20.8894 69.8347 21.7218C69.1387 22.5304 68.4907 23.2201 67.8907 23.7909C67.6507 24.0526 67.3627 24.2547 67.0267 24.3974C66.7147 24.5401 66.4027 24.6115 66.0907 24.6115C65.6587 24.6115 65.2747 24.5163 64.9387 24.3261C64.6027 24.1358 64.4347 23.8028 64.4347 23.3272C64.4347 23.2083 64.5187 23.018 64.6867 22.7564C64.8547 22.471 64.9507 22.3045 64.9747 22.2569C65.2627 21.7575 65.6467 21.2461 66.1267 20.7229C66.6067 20.1759 66.9067 19.831 67.0267 19.6883C67.3147 19.3316 67.6267 18.9867 67.9627 18.6538C68.1547 18.4397 68.4427 18.1067 68.8267 17.6549C69.2107 17.203 69.4747 16.8462 69.6187 16.5846L68.3587 14.8722C67.7587 14.1825 67.2427 13.6355 66.8107 13.2312C66.3787 12.8031 66.0307 12.589 65.7667 12.589C65.3827 12.589 65.0227 12.696 64.6867 12.9101C64.3987 13.1004 64.1107 13.1955 63.8227 13.1955C63.5107 13.1955 63.2707 13.1241 63.1027 12.9814C62.9347 12.815 62.8507 12.6366 62.8507 12.4463C62.8507 11.6377 63.1747 10.948 63.8227 10.3772C64.4707 9.78258 65.2867 9.48529 66.2707 9.48529C67.2067 9.48529 68.0347 9.80637 68.7547 10.4485C69.4987 11.0669 70.2307 11.8993 70.9507 12.9458C71.0467 13.0409 71.1547 13.1955 71.2747 13.4095C71.3947 13.6236 71.5147 13.802 71.6347 13.9447C71.8987 13.5641 72.3787 12.8268 73.0747 11.7328C73.8187 10.4247 74.2627 9.67556 74.4067 9.48529C74.9107 8.81936 75.4867 8.48639 76.1347 8.48639Z" fill="#D00707"/>
</svg>
