<svg xmlns="http://www.w3.org/2000/svg" viewBox="0 0 305.63 86.23"><defs><style>.cls-1{fill:#fff;}</style></defs><title>uvies-white</title><g id="Layer_2" data-name="Layer 2"><g id="Layer_1-2" data-name="Layer 1"><path class="cls-1" d="M55.66,26.84V85.06H41.45l-.58-10Q35.29,86.23,20.49,86.23q-9.42,0-15-5.07T0,65.38V26.84H16V61.31q0,6.75,2.56,9.55c1.71,1.86,4.24,2.79,7.57,2.79a13.09,13.09,0,0,0,9.84-3.9q3.8-3.9,3.79-11.7V26.84Z"/><path class="cls-1" d="M123.66,26.84,101.54,85.06H83.14L61,26.84H78.13L92.46,73.89l14.67-47Z"/><rect class="cls-1" x="129.02" y="26.84" width="15.95" height="58.22"/><path class="cls-1" d="M212.28,62H171.06q2.43,12.34,14.55,12.34a16.51,16.51,0,0,0,8.27-1.86,10,10,0,0,0,4.54-5.36l13,4.78a20.68,20.68,0,0,1-9.37,10.65q-6.59,3.68-16.48,3.67-14.45,0-22.36-8T155.34,56q0-14.33,7.68-22.3t21.66-8q13.51,0,20.79,7.8t7.27,22.24A41.47,41.47,0,0,1,212.28,62Zm-37-21.2c-2.3,2.26-3.75,5.59-4.37,10h27.13q-.93-6.53-4.42-10a12.45,12.45,0,0,0-9.09-3.43Q178.74,37.44,175.31,40.81Z"/><path class="cls-1" d="M218.22,75.05l9.31-9.55a13.84,13.84,0,0,0,6.7,7,25.52,25.52,0,0,0,10.77,2,18.15,18.15,0,0,0,7.92-1.4q2.79-1.41,2.79-3.85c0-1.31-.87-2.44-2.62-3.37a35.4,35.4,0,0,0-9-2.68q-13.4-2.68-18.81-7a14.38,14.38,0,0,1-5.41-11.82,15.71,15.71,0,0,1,3-9.2,20.9,20.9,0,0,1,9-6.92,35,35,0,0,1,14.21-2.62q9.78,0,15.83,3A25,25,0,0,1,272,38l-9.89,8.38a17.49,17.49,0,0,0-6.35-6.87,18.61,18.61,0,0,0-9.49-2.21A15.33,15.33,0,0,0,238.65,39q-2.85,1.63-2.85,4T238.59,47q2.81,1.62,9.9,3,12.69,2.57,18,6.7a13.75,13.75,0,0,1,5.3,11.47,15.36,15.36,0,0,1-6.93,13.1q-6.93,4.95-19.62,5Q225.79,86.23,218.22,75.05Z"/><circle class="cls-1" cx="137.05" cy="9.9" r="9.9"/><path class="cls-1" d="M305.63,54.56l-7.29-2.07a3.07,3.07,0,0,1-3,.76A3.11,3.11,0,0,1,293.22,51L285.94,49l-9,31.67,7.29,2.07a3.06,3.06,0,0,1,5.12,1.46l7.28,2.07ZM293.12,80l-9.91-2.82,6.23-21.89,9.91,2.82Z"/><polygon class="cls-1" points="289.28 63.62 291.58 65.91 294.47 64.44 293 67.33 295.3 69.63 292.09 69.12 290.62 72.02 290.11 68.81 286.9 68.31 289.79 66.83 289.28 63.62"/></g></g></svg>